<?xml version="1.0" encoding="utf-8"?>
<!DOCTYPE svg PUBLIC "-//W3C//DTD SVG 1.1//EN" "http://www.w3.org/Graphics/SVG/1.1/DTD/svg11.dtd">
<svg version="1.1" xmlns="http://www.w3.org/2000/svg" xmlns:xlink="http://www.w3.org/1999/xlink" 
	 viewBox="81.758 22 496.716 437.359" >
<style type="text/css">
.st0
{
	fill:#ED1C24;
}
.st1
{
	fill:#0B0A0B;
}
</style>
<g id="red_bg">
	<polygon class="st0" points="496.716,437.359 81.758,437.359 81.758,22 496.716,22 496.716,437.359"/>
</g>
<g id="ring">
	<path d="M230.799,157.465c3.798,10.394,10.292,19.486,18.634,26.441c11.591-7.089,25.219-11.179,39.805-11.179
		c14.585,0,28.213,4.09,39.805,11.179c8.343-6.955,14.837-16.047,18.637-26.439c-16.884-10.785-36.924-17.063-58.441-17.063
		C267.721,140.403,247.681,146.682,230.799,157.465L230.799,157.465z"/>
	<path d="M397.845,244.355c-10.902-1.908-22.024-0.829-32.216,2.917c0.343,13.586-2.93,27.433-10.22,40.063
		c-7.292,12.632-17.647,22.388-29.586,28.883c1.853,10.698,6.478,20.873,13.58,29.358c17.78-9.226,33.235-23.448,43.995-42.078
		C394.161,284.862,398.742,264.368,397.845,244.355L397.845,244.355z"/>
	<path d="M239.072,345.577c7.103-8.485,11.728-18.66,13.58-29.358c-11.937-6.495-22.293-16.251-29.585-28.883
		c-7.292-12.63-10.565-26.477-10.22-40.063c-10.193-3.747-21.314-4.826-32.217-2.917c-0.898,20.013,3.686,40.506,14.444,59.143
		C205.835,322.132,221.29,336.351,239.072,345.577L239.072,345.577z"/>
</g>
<g id="spider">
	<path class="st1" d="M254.124,261.816c0.609,0.875,1.792,1.133,2.717,0.6l10.161-5.867c0.941-0.544,1.429-1.64,1.19-2.702
		c-0.389-1.75-0.556-3.528-0.508-5.288c0.261-7.258,4.083-14.07,10.347-17.843c1.488-0.906,3.091-1.642,4.784-2.172
		c1.033-0.323,1.725-1.294,1.725-2.375v-11.736c0-1.067-0.813-1.962-1.879-2.053c-39.3-3.335-70.159-36.279-70.159-76.442
		c0-36.916,26.076-67.724,60.811-75.056c1.082-0.229,1.872-1.181,1.872-2.287v-3.274c0-0.989-0.827-1.805-1.808-1.657
		c-50.685,7.651-89.541,51.366-89.541,104.185c0,11.748,1.941,23.038,5.489,33.589c-10.915,2.201-21.666,6.178-31.842,12.056
		c-45.742,26.409-64.169,81.922-45.457,129.642c0.362,0.921,1.482,1.23,2.34,0.734l2.836-1.635c0.958-0.554,1.386-1.713,1.043-2.766
		c-11.016-33.746,2.624-71.736,34.595-90.194l0,0C187.623,219.192,231.584,229.45,254.124,261.816z M420.994,203.494
		c-10.175-5.874-20.92-9.836-31.836-12.042c3.555-10.552,5.485-21.85,5.485-33.603c0-52.818-38.863-96.533-89.547-104.185
		c-0.979-0.148-1.808,0.668-1.808,1.657v3.274c0,1.106,0.788,2.058,1.873,2.287c34.734,7.332,60.813,38.14,60.813,75.056
		c0,40.164-30.863,73.107-70.162,76.442c-1.063,0.09-1.879,0.985-1.879,2.053v11.736c0,1.086,0.703,2.055,1.743,2.381
		c1.709,0.537,3.33,1.281,4.833,2.204c6.238,3.859,10.033,10.569,10.283,17.88c0.04,1.742-0.123,3.499-0.514,5.232
		c-0.237,1.055,0.259,2.141,1.196,2.681l10.161,5.869c0.928,0.532,2.107,0.275,2.719-0.602
		c22.538-32.368,66.499-42.624,101.281-22.54c31.968,18.458,45.612,56.445,34.595,90.19c-0.343,1.053,0.085,2.212,1.047,2.766
		l2.831,1.635c0.859,0.496,1.98,0.187,2.341-0.734C485.165,285.411,466.736,229.902,420.994,203.494L420.994,203.494
		C410.819,197.62,420.994,203.494,420.994,203.494z M348.898,372.186c-34.782-20.081-47.876-63.281-31.119-98.984
		c0.452-0.967,0.085-2.119-0.839-2.652l-10.161-5.867c-0.944-0.545-2.134-0.42-2.937,0.318c-1.318,1.213-2.772,2.245-4.319,3.082
		c-6.354,3.457-14.285,3.481-20.626-0.032c-1.531-0.836-2.97-1.857-4.276-3.06c-0.797-0.734-1.985-0.846-2.921-0.308l-10.165,5.869
		c-0.924,0.533-1.291,1.686-0.838,2.652c16.761,35.705,3.662,78.901-31.118,98.982c-31.974,18.459-71.691,11.279-95.41-15.136
		c-0.738-0.823-1.956-1.033-2.916-0.476l-2.833,1.635c-0.858,0.496-1.152,1.621-0.534,2.396
		c31.972,40.066,89.258,51.862,134.999,25.454c10.175-5.876,18.98-13.203,26.345-21.552c7.364,8.353,16.183,15.673,26.36,21.552
		c45.742,26.409,103.031,14.609,135-25.457c0.618-0.775,0.326-1.9-0.534-2.396l-2.83-1.635c-0.962-0.554-2.179-0.343-2.92,0.479
		C420.59,383.461,380.87,390.642,348.898,372.186L348.898,372.186C314.116,352.105,348.898,372.186,348.898,372.186z"/>
</g>
</svg>
